<?xml version="1.0" encoding="UTF-8"?>
<svg width="452px" height="202px" viewBox="0 0 452 202" version="1.1" xmlns="http://www.w3.org/2000/svg" xmlns:xlink="http://www.w3.org/1999/xlink">
    <!-- Generator: Sketch 51.2 (57519) - http://www.bohemiancoding.com/sketch -->
    <title>logo principal</title>
    <desc>Created with Sketch.</desc>
    <defs></defs>
    <g id="Page-1" stroke="none" stroke-width="1" fill="none" fill-rule="evenodd">
        <g id="logo-principal" transform="translate(-57.000000, -56.000000)" fill="#FFFFFF" fill-rule="nonzero">
            <g id="Group" transform="translate(57.000000, 56.000000)">
                <polygon id="Shape" points="298.5 148.8 330.5 100.1 298.5 51.5"></polygon>
                <path d="M111.4,76.1 C111.3,76 111.4,76.1 111.3,76 C108.4,72.2 104.3,70.1 100.2,70.1 C94.6,70.1 90.6,72.2 86.9,76 C84,78.9 80.4,83.9 79.8,90.7 L104.3,90.7 C112.5,90.7 115.9,81.9 111.4,76.1 Z" id="Shape"></path>
                <path d="M149.6,46.9 L172.3,46.9 C180.6,46.9 187.4,53.6 187.4,62 C189.1,59.8 191,57.6 193.1,55.5 C195.2,53.4 197.5,51.5 200.2,49.9 C202.8,48.3 205.7,47 208.8,46 C211.9,45 215.4,44.5 219.2,44.5 C230.8,44.5 239.8,48 246.2,55 C252.6,62 255.9,71.7 255.9,84 L255.9,201.5 L351.3,201.5 C406.7,201.5 451.6,156.6 451.6,101.2 C451.6,45.8 406.7,0.9 351.3,0.9 L298.5,0.9 L298.5,37.3 L260.2,37.3 L260.2,0.9 L100.4,0.9 C45,0.9 0.1,45.8 0.1,101.2 C0.1,156.6 45,201.5 100.4,201.5 L217.9,201.5 L217.9,96.1 C217.9,90.1 216.5,85.7 213.8,82.6 C211.1,79.6 207.5,78 203,78 C198.4,78 194.7,79.5 191.7,82.6 C191.3,83 191,83.4 190.7,83.8 C188.5,86.8 187.4,90.9 187.4,96 L187.4,135.2 C187.4,139.8 185.8,144 183.1,147.3 C179.6,151.6 174.3,154.3 168.4,154.3 C157.9,154.3 149.5,145.8 149.5,135.4 L149.6,46.9 Z M43.9,101.1 L43.9,100.7 C43.9,92.9 45.5,85.6 48.1,78.8 C50.7,72 54.5,66 59.3,60.9 C64.1,55.8 69.8,51.8 76.5,48.9 C83.1,46 90.4,44.5 98.3,44.5 C107.6,44.5 115.6,46.1 122.4,49.3 C129.2,52.5 134.9,56.7 139.3,62.1 C139.4,62.2 139.5,62.3 139.6,62.5 C155,82.2 140.8,111 115.8,111 L80.5,111 C82,117 84.7,121.4 88.7,124.3 C92.7,127.2 97.7,128.7 103.7,128.7 C108.1,128.7 112.1,127.9 115.8,126.2 C117.3,125.5 118.8,124.7 120.3,123.6 C124.8,120.6 130.7,120.7 134.8,124.2 L148,135.1 C142.8,141.7 136.5,147 128.9,151 C121.3,155 112.1,157 101.4,157 C92.9,157 85.2,155.6 78.2,152.9 C71.2,150.2 65.1,146.4 60.1,141.6 C55,136.8 51,130.9 48.2,124 C45.3,117.1 43.8,109.5 43.9,101.1 Z M272.9,154.3 C265.8,154.3 260.1,148.5 260.1,141.4 L260.1,46.9 L322.3,46.9 C330.6,46.9 338.2,51.3 342.4,58.4 L351.4,73.4 L361.9,56 C365.2,50.5 371.2,47.1 377.7,47.1 L407.1,47.1 L371.8,100.1 L407.9,154.4 L378,154.4 C371.5,154.4 365.6,151 362.2,145.5 L351,126.7 L339.5,145.4 C336.1,150.9 330.2,154.2 323.8,154.2 L272.9,154.3 Z" id="Shape"></path>
            </g>
        </g>
    </g>
</svg>